<svg
  id="Layer_1"
  style="enable-background:new 0 0 64 64;"
  version="1.1"
  viewBox="0 0 64 64"
  xml:space="preserve"
  xmlns="http://www.w3.org/2000/svg"
  xmlns:xlink="http://www.w3.org/1999/xlink"
><g><path
      class="st0"
      d="M58.3496094,40.8120117c-0.7128906-1.3427734-2.3154297-1.9399414-3.7294922-1.3901367l-2.8856201,1.1306763   c-0.8209839-2.6569824-3.7626953-3.5199585-5.4630127-3.5847778c-0.4511719,0-0.890625,0.0712891-1.3085938,0.2128906   c-1.078125-0.9707031-2.8046875-1.2749023-4.2158203-0.7241211c-0.6500244-0.5869141-1.4926758-0.9834595-2.4142456-1.1470337   c0.0079346-0.3793335,0.0201416-0.7785034,0.0402222-1.2040405c0.095459-1.8660278,0.3001099-3.6496582,0.5997925-5.3150024   c0.359436-0.5148315,1.8632813-2.3203125,5.5861206-3.1391602c0.4871826,0.1981812,1.6901245,0.6240845,3.0592041,0.6240845   c0.7392578,0,1.5224609-0.1254883,2.2607422-0.4799805c2.4550781-1.1806641,3.2685547-4.3598633,3.3017578-4.4946289   l0.1972656-0.796875l-0.7431641-0.3491211c-0.125-0.0585938-3.0947266-1.4272461-5.5546875-0.2441406   c-1.7938232,0.8626709-2.7087402,2.788147-3.0857544,3.8175659c-1.8200073,0.4173584-3.2040405,1.0537109-4.2341919,1.7103271   c0.6776123-2.2946777,1.5817871-4.2630615,2.7070313-5.881958c0.9036865-0.3673706,3.027832-1.4174805,3.8394775-3.4384155   v-0.0004883c1.0185547-2.5371094-0.5107422-5.4331055-0.5761719-5.5551758l-0.3925781-0.7304688l-0.7910156,0.2509766   c-0.1318359,0.0415039-3.2353516,1.0522461-4.2548828,3.5932617c-0.7769775,1.9338989-0.0740967,4.0722046,0.3338013,5.0359497   c-0.9993896,1.4995117-1.8383789,3.2412109-2.4988403,5.227478c-1.6655884-1.6995239-2.416687-4.0908813-2.7275391-5.460144   c0.652771-0.7879028,1.9702148-2.6628418,1.7646484-4.7715454c-0.2636719-2.7255859-2.9541016-4.5786133-3.0683594-4.65625   l-0.6884766-0.4663086l-0.5839844,0.5908203c-0.0976563,0.0986328-2.3798828,2.440918-2.1142578,5.1650391   c0.2073975,2.1444092,1.9122314,3.7444458,2.6877441,4.3692627c0.3703613,1.7532349,1.4190674,5.2095337,4.1185303,7.3623047   c-0.1781006,0.7059937-0.3439331,1.4282837-0.4840088,2.1834717c-0.1251221,0.6775513-0.2186279,1.3911743-0.3118286,2.1044922   c-0.8634033-0.9477539-1.9028931-1.6968384-2.7271729-2.2122803c-0.0244141-0.8718262-0.2467041-3.4089966-1.9551392-4.9229736   c-2.0458984-1.8134766-5.2714844-1.3144531-5.4082031-1.2924805l-0.8134766,0.1323242l-0.0253906,0.8237305   c-0.0048828,0.1386719-0.0839844,3.418457,1.9570313,5.2280273c1.3017578,1.1542969,3.0810547,1.3720703,4.2392578,1.3720703   c0.1206055,0,0.2259521-0.0043335,0.3317871-0.0082397c1.4559326,0.8262329,4.0504761,2.6856689,4.055481,4.5667114   c-0.0212402,0.4572144-0.0336304,0.8831177-0.0413208,1.2874756c-0.7441406,0.1437988-1.4372559,0.4295044-2.0148926,0.8605957   c-0.6210938-0.3637695-1.3359375-0.5551758-2.0839844-0.5551758c-1.2285156,0-2.3603516,0.5141602-3.0742188,1.3847656   c-0.2246094-0.0385742-0.453125-0.0576172-0.6816406-0.0576172c-1.4852295,0-2.7603149,0.7947998-3.3856812,1.9395752   l-1.7686157-0.5093994c-1.5019531-0.4326172-3.0166016-0.550293-4.5097656-0.3461914   c-2.2023315,0.2989502-5.7286987,1.2755127-10.2210693,4.0679932c-0.3570557-0.3311768-0.8309937-0.538208-1.3551025-0.538208   h-2.53125c-1.1025391,0-2,0.8969727-2,2v13.2250977c0,1.1030273,0.8974609,2,2,2h2.53125   c0.852356,0,1.5768433-0.5385742,1.8641357-1.2915039c0.0223389-0.0230103,0.053894-0.0328979,0.0743408-0.0581055   c0.6015625-0.7348633,4.1337891-4.2900391,14.78125-2.1254883c12.2167969,2.484375,17.0888672-0.7856445,17.7900391-1.3251953   l15.4824219-9.1733398C58.6191406,44.0092773,59.1113281,42.2446289,58.3496094,40.8120117z M47.9472656,21.7133789   c0.9804688-0.4711914,2.1953125-0.2719727,2.9912109-0.046875c-0.328125,0.7695313-0.9414063,1.8525391-1.9267578,2.3261719   c-0.9804688,0.4711914-2.1943359,0.2719727-2.9912109,0.046875C46.3486328,23.2700195,46.9619141,22.1870117,47.9472656,21.7133789   z M33.6708984,11.2924805c0.6044922,0.5756836,1.3974609,1.5239258,1.5029297,2.6083984v0.0004883   c0.1064453,1.0917969-0.4902344,2.1762695-0.9726563,2.8574219c-0.6044922-0.5742188-1.3964844-1.5205078-1.5019531-2.6103516   C32.59375,13.0576172,33.1884766,11.9736328,33.6708984,11.2924805z M27.8486328,23.8544922   c0.8300781,0.0039063,2.0517578,0.1489258,2.8623047,0.8671875c0.8193359,0.7270508,1.1171875,1.9379883,1.2246094,2.7685547   c-0.828125-0.0024414-2.0478516-0.1474609-2.8613281-0.8691406C28.2548828,25.8945313,27.9570313,24.6850586,27.8486328,23.8544922   z M42.1474609,14.4213867c0.4072266-1.0131836,1.4296875-1.6933594,2.1689453-2.0712891   c0.2714844,0.7939453,0.5410156,2.0092773,0.1347656,3.0234375c-0.4072266,1.0136719-1.4316406,1.6938477-2.1708984,2.0712891   C42.0078125,16.652832,41.7382813,15.4399414,42.1474609,14.4213867z M28.4775391,38.9677734   c0.1552734,0,0.3095703,0.0170898,0.4589844,0.0517578c0.6474609,0.1459961,1.3212891-0.1054688,1.7089844-0.6479492   c0.5361328-0.7514648,1.9296875-0.9536133,2.7695313-0.3813477c0.6142578,0.418457,1.4091797,0.3803711,1.9824219-0.0996094   c1.0585938-0.8925781,3.1591797-0.8212891,4.1064453,0.1430664c0.4824219,0.4907227,1.2265625,0.6254883,1.8505859,0.3364258   c0.7792969-0.3588867,1.7919922-0.1928711,2.3388672,0.3632813c0.4785156,0.4824219,1.1826172,0.6333008,1.7929688,0.3847656   c0.2460938-0.0996094,0.5107422-0.1503906,0.7431641-0.1513672c0.3433838,0.0153809,3.0800781,0.2121582,3.6270752,2.3215942   l-6.2374268,2.4440308c-0.0810547-0.5288086-0.2783203-1.1015625-0.6962891-1.6025391   C42.2626953,41.3388672,41.2451172,40.9375,39.9003906,40.9375h-6.078125c-1.1162109,0-2.2255859-0.1567383-3.2988281-0.4658203   l-3.4031982-0.9801636C27.4509277,39.1735229,27.9335938,38.9677734,28.4775391,38.9677734z M4.7060547,56.8066406V43.581543   h2.53125v13.1826172c0,0.0021362,0.0009766,0.0040283,0.0009766,0.0061646v0.0363159H4.7060547z M56.2099609,43.1123047   l-15.5410156,9.2080078l-0.1337891,0.0947266c-0.0419922,0.0341797-4.2910156,3.3754883-16.1796875,0.956543   c-8.3720703-1.7026367-12.8896484-0.0849609-15.1181641,1.4013672V44.0620117   c4.4023438-2.8154297,7.7714844-3.7470703,9.8457031-4.0288086c1.2119141-0.1621094,2.453125-0.0678711,3.6865234,0.2866211   l7.2001953,2.0737305c1.2529297,0.3608398,2.5488281,0.5439453,3.8525391,0.5439453h6.078125   c0.7236328,0,1.2246094,0.1591797,1.4863281,0.4736328c0.2792358,0.3347168,0.3122559,0.8878784,0.2520142,1.3336182   c-0.5245361,0.3897705-3.2645874,1.8816528-13.6065063,0.8455811c-0.5585938-0.050293-1.0400391,0.3461914-1.0947399,0.8955078   c-0.0546741,0.5498047,0.3457165,1.0395508,0.8955212,1.0947266c2.6279297,0.2626953,4.8173828,0.371582,6.640625,0.371582   c5.9707642,0,8.0124512-1.1643066,8.7085571-1.9005737l12.1664429-4.7669067   c0.4648438-0.1811523,0.9970703,0.0185547,1.2373047,0.4697266C56.8427734,42.2382813,56.6777344,42.8349609,56.2099609,43.1123047   z"
    /><path
      class="st0"
      d="M30.0839844,21.1547852c0.2919922,0,0.4970703-0.019043,0.5644531-0.0263672l0.8203125-0.0869141   l0.0703125-0.8212891c0.0234241-0.2729492,0.1865234-2.7099609-1.3310547-4.2094727   c-1.5205212-1.5029297-3.9453125-1.2939453-4.2128906-1.2641602l-0.8203125,0.0869141l-0.0703125,0.8217773   c-0.0234375,0.2729492-0.1845703,2.7089844,1.3310547,4.2084961   C27.5732422,20.9892578,29.2158203,21.1547852,30.0839844,21.1547852z M28.8017578,17.4331055v0.0004883   c0.4326172,0.4267578,0.6279297,1.1044922,0.7060547,1.6835938c-0.5683594-0.0693359-1.2382813-0.2529297-1.6660156-0.675293   c-0.4316406-0.4272461-0.6269531-1.1049805-0.7060547-1.684082C27.7050781,16.8271484,28.375,17.0107422,28.8017578,17.4331055z"
    /><path
      class="st0"
      d="M38.7285156,13.3583984l0.6777344-0.4804688c0.2226563-0.1577148,2.1796875-1.6030273,2.3417969-3.7373047   c0.1630859-2.1328125-1.5507813-3.8618164-1.7470703-4.0517578l-0.5966797-0.5786133l-0.6777344,0.4804688   c-0.2226563,0.1582031-2.1787109,1.6035156-2.3417969,3.737793c-0.1621094,2.1328125,1.5507813,3.8608398,1.7470703,4.0512695   L38.7285156,13.3583984z M39.1933594,7.2612305c0.3164063,0.487793,0.6064453,1.1225586,0.5605469,1.7270508v0.0004883   c-0.0458984,0.6040039-0.4287109,1.1860352-0.8134766,1.6186523c-0.3164063-0.487793-0.6074219-1.1230469-0.5615234-1.7270508   S38.8076172,7.6938477,39.1933594,7.2612305z"
    /><path
      class="st0"
      d="M42.6611328,27.9125977c-1.9785156,0.7875977-2.7724609,3.0976563-2.8564453,3.3588867l-0.2509766,0.7807617   l0.7167969,0.3989258c0.1777344,0.0996094,1.4228516,0.7626953,2.8681641,0.7626953   c0.4892578,0,1.0019531-0.0761719,1.5039063-0.2758789c1.9794922-0.7880859,2.7714844-3.0981445,2.8554688-3.3588867   l0.2509766-0.7807617l-0.7158203-0.3989258C46.7939453,28.2666016,44.6445313,27.1240234,42.6611328,27.9125977z    M43.9023438,31.0795898c-0.5556641,0.2226563-1.2451172,0.128418-1.8007813-0.0336914   c0.2958984-0.5004883,0.7373047-1.0512695,1.2998047-1.2749023c0.5576172-0.2241211,1.2470703-0.128418,1.7998047,0.0336914   C44.9052734,30.3076172,44.4648438,30.855957,43.9023438,31.0795898z"
    /></g></svg>
