<?xml version="1.0" ?>
<!DOCTYPE svg PUBLIC '-//W3C//DTD SVG 1.1//EN'
  'http://www.w3.org/Graphics/SVG/1.1/DTD/svg11.dtd'>
<svg
  enable-background="new 0 0 85 85"
  height="85px"
  id="Layer_1"
  version="1.1"
  viewBox="0 0 85 85"
  width="85px"
  xml:space="preserve"
  xmlns="http://www.w3.org/2000/svg"
  xmlns:xlink="http://www.w3.org/1999/xlink"
><g><g><path
        d="    M63.23,45.635"
        fill="none"
        stroke="#394553"
        stroke-linecap="round"
        stroke-linejoin="round"
        stroke-miterlimit="10"
        stroke-width="2.5"
      /><path
        d="    M76.275,23.195l-3.133,17.201c-0.34,1.868-1.402,3.333-3.33,2.981l-3.027-0.55l-1.25,6.857l-5.881-1.074"
        fill="none"
        stroke="#394553"
        stroke-linecap="round"
        stroke-linejoin="round"
        stroke-miterlimit="10"
        stroke-width="2.5"
      /><line
        fill="none"
        stroke="#394553"
        stroke-linecap="round"
        stroke-linejoin="round"
        stroke-miterlimit="10"
        stroke-width="2.5"
        x1="67.723"
        x2="70.502"
        y1="37.424"
        y2="22.185"
      /><line
        fill="none"
        stroke="#394553"
        stroke-linecap="round"
        stroke-linejoin="round"
        stroke-miterlimit="10"
        stroke-width="2.5"
        x1="61.943"
        x2="64.719"
        y1="36.369"
        y2="21.131"
      /><path
        d="    M58.943,20.037L55.807,37.24c-0.338,1.867,0.137,3.611,2.066,3.964l3.025,0.551l-0.52,2.87"
        fill="none"
        stroke="#394553"
        stroke-linecap="round"
        stroke-linejoin="round"
        stroke-miterlimit="10"
        stroke-width="2.5"
      /><g><path
          d="     M64.609,49.662L60.6,71.875"
          fill="none"
          stroke="#394553"
          stroke-linecap="round"
          stroke-linejoin="round"
          stroke-miterlimit="10"
          stroke-width="2.5"
        /></g><g><path
          d="     M60.361,48.818l-4.205,22.977"
          fill="none"
          stroke="#394553"
          stroke-linecap="round"
          stroke-linejoin="round"
          stroke-miterlimit="10"
          stroke-width="2.5"
        /></g></g><path
      d="   M26.942,52.727c0,0,4.879,2.389,13.079,0"
      fill="none"
      stroke="#394553"
      stroke-linecap="round"
      stroke-linejoin="round"
      stroke-miterlimit="10"
      stroke-width="2.5"
    /><g><polyline
        fill="none"
        points="21.232,53.518 21.232,62.422     17.58,62.422 17.58,72.545   "
        stroke="#394553"
        stroke-miterlimit="10"
        stroke-width="2.5"
      /><polyline
        fill="none"
        points="45.73,53.518 45.73,62.422     49.383,62.422 49.383,72.545   "
        stroke="#394553"
        stroke-miterlimit="10"
        stroke-width="2.5"
      /></g><path
      d="M54.658,52.117   c-2.355-1.906-5.01-2.363-5.01-2.363s-2.914-0.594-3.818-0.781l-5.319-0.877v14.199H26.453V48.096l-5.318,0.877   c-0.905,0.188-3.82,0.781-3.82,0.781s-8.591,1.475-8.591,10.223v12.568"
      fill="none"
      stroke="#394553"
      stroke-linejoin="round"
      stroke-miterlimit="10"
      stroke-width="2.5"
    /><g><g><path
          d="M44.078,29.028     c0.049,0.502,0.076,1.018,0.076,1.548c0,7.273-4.991,14.432-10.669,14.432c-4.879,0-9.25-5.287-10.384-11.389"
          fill="none"
          stroke="#394553"
          stroke-linecap="round"
          stroke-miterlimit="10"
          stroke-width="2.5"
        /></g><path
        d="    M43.881,21.338c-0.107-7.86-1.937-8.291-1.937-8.291c-2.368-1.726-5.922,0.862-5.922,0.862c-0.667,0.5-1.872,0.688-2.368,0.658    c-0.506,0.021-1.7-0.158-2.368-0.658c0,0-3.553-2.588-5.921-0.862c0,0-1.832,0.431-1.938,8.291c0,0-2.799,5.92-6.566,7.103h4.515    h24.658h4.416C46.682,27.258,43.881,21.338,43.881,21.338z"
        fill="none"
        stroke="#394553"
        stroke-linecap="round"
        stroke-linejoin="round"
        stroke-miterlimit="10"
        stroke-width="2.5"
      /></g></g></svg>
