<svg
  enable-background="new 0 0 135.302 230.296"
  height="230.296px"
  id="Layer_1"
  version="1.1"
  viewBox="0 0 135.302 230.296"
  width="135.302px"
  xml:space="preserve"
  xmlns="http://www.w3.org/2000/svg"
  xmlns:xlink="http://www.w3.org/1999/xlink"
><g><path
      d="M132.565,122.798c-4.718-17.439-11.284-44.854-17.871-68.659c-3.3-11.912-6.596-22.921-9.728-31.471   c-3.472-8.659-5.282-14.371-10.375-18.004C89.375,1.558,84.383-0.003,79.643,0C65.254,0.346,58.017,12.917,52.729,23.301   C45.948,37.197,5.461,96.488,0.85,139.284C0.303,144.529,0,149.864,0,155.195c0.018,18.431,3.562,36.94,13.732,51.298   C23.871,220.901,41,230.396,65.397,230.295c0.481,0,0.965-0.003,1.454-0.009c48.712-1.008,68.604-48.681,68.449-85.181   C135.298,137.123,134.385,129.537,132.565,122.798z M66.708,220.288c-0.438,0.006-0.876,0.009-1.311,0.009   c-43.098-0.294-54.803-30.371-55.399-65.102c0-4.951,0.282-9.946,0.798-14.874c3.854-38.504,43.214-97.533,50.88-112.553   c5.061-10.34,11.098-18.116,17.967-17.771c2.519,0,5.723,0.817,9.836,3.262c0.015-0.012,0.023-0.017,0.409,0.53   c3.714,4.638,10.441,25.169,16.392,47.477c6.114,22.501,12.148,47.558,16.634,64.143c1.549,5.717,2.39,12.484,2.387,19.696   C125.146,179.093,107.296,219.994,66.708,220.288z"
      fill="#231F20"
    /><path
      d="M68.521,93.69c-10.66,0.112-31.652,11.478-37.283,38.639c-0.853,4.215-1.445,8.893-1.448,13.675   c0.003,8.455,1.859,17.351,7.765,24.239c5.906,6.897,15.724,11.34,30.437,11.313c0.182,0,0.366,0,0.547,0   c28.25-0.124,37.45-22.846,37.358-40.688c-0.006-6.371-1.063-12.267-2.824-16.804C96.232,107.203,79.578,94.019,68.521,93.69z    M68.504,176.557c-0.17,0-0.343,0-0.513,0c-27.313-0.309-32.829-14.996-33.2-30.553c0-4.364,0.549-8.731,1.347-12.685   c4.88-24.807,24.761-34.746,32.384-34.632c7.229-0.328,24.285,12.151,29.893,27.196c1.483,3.783,2.488,9.187,2.482,14.984   C100.666,157.527,93.432,176.294,68.504,176.557z"
      fill="#231F20"
    /><path
      d="M93.109,146.09c-0.542-0.115-1.071,0.233-1.184,0.771c-2.499,11.887-13.096,20.624-25.518,20.621   c-0.504,0-1.011-0.015-1.522-0.043c-0.551-0.032-1.022,0.392-1.054,0.941c-0.032,0.553,0.389,1.024,0.941,1.056   c0.547,0.029,1.094,0.047,1.635,0.047c13.372-0.003,24.777-9.396,27.476-22.21C93.996,146.732,93.65,146.202,93.109,146.09z"
      fill="#231F20"
    /><path
      d="M89.839,127.948c-0.487,0.262-0.671,0.866-0.409,1.353c1.816,3.395,2.894,7.22,3.037,11.262   c0.018,0.553,0.48,0.984,1.033,0.965c0.553-0.021,0.984-0.483,0.965-1.034c-0.152-4.355-1.315-8.48-3.271-12.134   C90.933,127.873,90.325,127.688,89.839,127.948z"
      fill="#231F20"
    /></g></svg>
