<svg
  enable-background="new 0 0 24 24"
  height="24px"
  id="Layer_1"
  version="1.1"
  viewBox="0 0 24 24"
  width="24px"
  xml:space="preserve"
  xmlns="http://www.w3.org/2000/svg"
  xmlns:xlink="http://www.w3.org/1999/xlink"
><g><g><path
        d="M10.4,23.5c-3.6,0-6.6-3-6.6-6.6c0-3.6,3-6.6,6.6-6.6c3.6,0,6.6,3,6.6,6.6C17,20.5,14.1,23.5,10.4,23.5z M10.4,11.3    c-3.1,0-5.6,2.5-5.6,5.6c0,3.1,2.5,5.6,5.6,5.6S16,20,16,16.9C16,13.8,13.5,11.3,10.4,11.3z"
      /></g><g><path
        d="M16.5,18.1c-0.1,0-0.3-0.1-0.4-0.1C16,17.9,16,17.7,16,17.6c0-0.2,0.1-0.5,0.1-0.7c0-3.1-2.5-5.6-5.6-5.6    c-0.2,0-0.5,0-0.7,0.1c-0.2,0-0.3,0-0.4-0.1c-0.1-0.1-0.2-0.3-0.1-0.4C9.6,7.5,12.4,5,15.7,5c3.6,0,6.6,3,6.6,6.6    C22.3,14.9,19.9,17.7,16.5,18.1C16.5,18.1,16.5,18.1,16.5,18.1z M10.4,10.3c3.6,0,6.6,3,6.6,6.6c0,0.1,0,0.1,0,0.2    c2.5-0.6,4.3-2.8,4.3-5.5c0-3.1-2.5-5.6-5.6-5.6c-2.6,0-4.9,1.8-5.5,4.3C10.3,10.3,10.4,10.3,10.4,10.3z"
      /></g><g><path
        d="M7.5,16.2c-0.4,0-0.7-0.3-0.7-0.7c0-0.4,0.3-0.7,0.7-0.7c0.4,0,0.6,0.3,0.6,0.7C8.1,15.9,7.8,16.2,7.5,16.2z M7.5,15.2    c-0.2,0-0.4,0.2-0.4,0.3c0,0.2,0.2,0.3,0.4,0.3c0.2,0,0.3-0.2,0.3-0.3C7.8,15.3,7.6,15.2,7.5,15.2z"
      /></g><g><path
        d="M5.8,13.5c-0.1,0-0.2,0-0.3-0.1c-0.2-0.2-0.3-0.5-0.1-0.7c1-1.5,1.3-3.3,1-5.1C6,5.9,4.9,4.3,3.4,3.3    C3.2,3.2,3.1,2.9,3.3,2.6C3.4,2.4,3.7,2.4,4,2.5c1.7,1.1,2.9,2.9,3.3,4.9c0.4,2,0,4.1-1.1,5.8C6.1,13.4,5.9,13.5,5.8,13.5z"
      /></g><g><path
        d="M11.8,7.4c-0.2,0-0.4-0.1-0.5-0.3c-1.6-3.4-5.6-4.9-9-3.3c-0.2,0.1-0.5,0-0.7-0.2c-0.1-0.3,0-0.5,0.2-0.7    c3.9-1.8,8.5-0.1,10.3,3.8c0.1,0.3,0,0.5-0.2,0.7C11.9,7.4,11.9,7.4,11.8,7.4z"
      /></g><g><path
        d="M3.7,3.1c-0.3,0-0.5-0.2-0.5-0.5V1c0-0.3,0.2-0.5,0.5-0.5S4.2,0.7,4.2,1v1.6C4.2,2.9,4,3.1,3.7,3.1z"
      /></g></g></svg>
