<svg id="element" viewBox="0 0 500 500" xmlns="http://www.w3.org/2000/svg"><path
    d="M44.384,187.6c11.111,7.376,25.041,11.269,35.377,19.735a237.369,237.369,0,0,0,35.8,44.14c-23.717-1.265-38.81-19.64-63.282-13.629-2.843.647-3.2,4.048-1.582,5.991,19.848,22.6,53.1,7.746,77.869,19.052,9.685,7.78,20.1,14.7,31.588,19.574-8.69-.024-26.778-.186-36.608-.278a7.7,7.7,0,0,0-7.717,6.785c-5.239,58.743,7.886,130.127,69.3,153.374,19.49,7.537,36.9,15.052,46.4,35.089,4.247,9.722,3.415,18.469,17.063,17.6,13.006-.021,88.889.746,92.88-.668,3.8-1.346,5.245-4.508,6.4-8.06a57.987,57.987,0,0,1,28.918-34.817c9.987-5.238,20.855-8.54,30.848-13.781,55.216-27.12,59.454-90.057,61.457-143.439a10.72,10.72,0,0,0-10.431-11.207c-10.014-.264-24.286-.609-30.786-.616,14.6-49.112,36.7-95.568,52.763-144.215,4.743-14.071,9.818-29.383,8.266-44.039-1.37-12.934-9.948-26.41-23.718-28.305-28.779-2.9-52.115,42.2-67.12,62.357-24.15,33.861-43.442,70.673-60.727,108.416a26.9,26.9,0,0,0-11.255-10.389,16.7,16.7,0,0,0,5-2.637c2.035-1.613,1-5.775-1.62-6.135a34.989,34.989,0,0,0-8.855-.462c1.516-6.334,8.43-24.3-.327-27.311-9.355-2.932-13.011,19.988-13.532,26.273-4.506-2.45-9.806-4.042-12.641-.514-2.87,3.573.447,6.841,4.518,9.193a20.408,20.408,0,0,0-9.966,6.875c-1.832,2.481,1.574,4.644,3.728,3.728a53.616,53.616,0,0,1,17.5-4.483c8.311,2.116,12.894,6.737,11.591,15.626-1.139,6.45-4.28,15.669-12.077,15.185-4.951-1.448-10.41-1.74-14.793.242-.195-16.568-9.975-26.8-26.869-25.418a4.159,4.159,0,0,0,.2-1.448,20.07,20.07,0,0,0,2.243-2.311c2.559-3.147,1.447-8.394-3.248-8.393-3.69.095-6.837,3.386-9.155,5.961-1.942-6.946-.471-45.126-13.217-39.34-9.888,6.738-3.158,29.111,1.207,38.207-4.712-1.675-10.1-1.936-13.7-.5-4.156,1.654-5.782,6.971-1.474,9.629,3.1,1.75,7.129,1.9,10.41,3.324-17.324,7.236-20.734,26.253-9.486,40.77C214.7,280.809,200.3,266.064,197.4,249.88c-1.847-12.033.913-17.982,6.5-28.26,3.314-7.087,5.017-14.652,1.547-21.99-.966-2.041-4.347-1.99-5.327,0-6.045,11.739-9.329,25.934-10.181,39.533a174.748,174.748,0,0,1-9.178-46.336c.241-9.387,2.846-18.445,6.316-27.109,4.612-11.863,9.006-23.8,6.609-36.689a3.145,3.145,0,0,0-5.473-1.47c-19.148,22.468-17.083,53.224-13.34,80.805-4.9-5.669-10.708-10.675-14.568-17.178-5.283-8.9-7.24-18.54-16.423-24.618a3.222,3.222,0,0,0-5.021,2.829c0,35.389,25.683,31.133,39.344,56.115,5.5,21.553,13.715,44.264,33.042,57.219-26.259.722-49.712-2.536-66.827-24.686-3.8-7.813-3.222-16.334-2.716-24.749.687-12.523-3.125-24.113-12.7-32.541-1.572-1.383-4.666-.574-4.492,1.861,1.323,18.626,2.671,38.438,12.843,54.649.457,1.383.977,2.749,1.569,4.078l-.04.033c-13.049-9.442-24.663-21.174-34.881-33.5-6.3-9.3-9.226-17.311-8.625-28.646,1.07-18.017,16.644-35.85,1.456-52.351a2.77,2.77,0,0,0-4.59,1.213c-5.3,19.3-9.044,39.7-3.465,59.386A261.426,261.426,0,0,1,64,160.422c-7.371-29.941-2.8-64.538-22.212-90.487-2.016-2.61-5.683-1.7-6.063,1.642-4.408,34.118,4.886,56.467,19.55,86.3a254.519,254.519,0,0,0,15.527,34.24l0,0a81.386,81.386,0,0,1-25.458-23.253c-7.39-10.144-17.354-21.948-31.284-19.63a2.637,2.637,0,0,0-1.573.347,3.008,3.008,0,0,0-1.079,4.516C19,167.7,31.537,179.073,44.384,187.6ZM355.293,220.48a32.26,32.26,0,0,1,2.191-8.187,545.333,545.333,0,0,1,61.02-99.766c29.438-38.148,54.573-46.768,46.582-.745-7.708,35.267-42.906,139.665-92.321,132.991A21.151,21.151,0,0,1,355.293,220.48Zm-98.3,23.84c9.287,2.145,15.111,7.636,15.541,17.6.463,6.786-1.392,14.022-6.274,18.815-1.4.679-2.89,1.236-4.447,1.973l-14,.007c-10.492-1.344-15.567-9.1-15.721-19.254C231.8,250.319,245.271,245.128,256.99,244.32Zm126.948,46.528A16.517,16.517,0,0,1,400.6,307.86c-.386,10.106-5.523,20.858-16.563,20.836-59.1.261-160.6.268-209.162.711a3.551,3.551,0,0,0,0,7.1c21.9,2.7,80.1,4.986,108.658,4.109,17.912-.036,70.737.963,79.117,1.917,24.618,2.8,19.208,26.316,15.292,34.5-24.261,33.664-71.23,42.376-74.665,90.3-.653,5.65.506,16.15-5.425,19.411-25.206-.046-53.259-.688-54.28-2.788-14.334-47.146-62.816-41.636-91.388-73.854-27.985-32.433-30.813-78.975-26.818-119.813C144.5,290.939,291.32,291.126,383.938,290.848Z"
  /><path
    d="M236.309,47.375c-5.115-12.755-15.388-18.97-23.677-21.986a4.3,4.3,0,0,0-5.042,6.452c7.523,10.845,15,25.894,14.817,35.535-.264,13.725-6.323,26.48-9.813,39.542-5.606,19.763-2.353,41.333,10.3,57.954.973,1.534,5.343,5.593,7.9,7.564,2.923,2.251,7.235-2.083,5.125-5.126C195.566,121.462,251.472,91.865,236.309,47.375Z"
  /><path
    d="M299.872,64.816c7.736-10.431,12.213-23.2,9.007-36.138-2.438-9.843-13.3-21.423-24.252-23.832-2.027-.446-5.591,1.192-4.4,3.349,7.47,13.488,9.24,29.559,4.444,40.684C279.963,59.81,270.782,68.017,263.406,77.1c-14.4,17.723-24.616,41.85-17.42,64.649,1.232,3.9,6.289,2.3,6.033-1.664C248.722,89,282.662,88.019,299.872,64.816Z"
  /><path
    d="M151.231,67.57l19.111-8.276c3.668-1.53,2.419-7.26-1.587-7.071l-19.395.636A17.04,17.04,0,0,1,132.9,41.936L124.493,20c-1.343-3.661-7-2.787-7.129,1.152l-1.055,23.107a17.121,17.121,0,0,1-10.3,14.872L87.784,66.942c-3.638,1.493-2.484,7.143,1.458,7.078l19.6-.025A17.055,17.055,0,0,1,124.9,85.31l10.415,29.248c1.352,3.925,7.411,2.758,7.158-1.425l-1.478-29.075A17.1,17.1,0,0,1,151.231,67.57ZM133.828,88.4c-3.726-13.375-12.012-22.1-26.575-21.775,12.071-4.5,17.12-15.142,16.675-27.488,3.715,12.47,11.994,21.309,25.686,21.1C137.876,64.669,132.143,76.246,133.828,88.4Z"
  /><path
    d="M318.2,160.4c-.468,4.126,5.5,5.679,7.075,1.794l11.176-26.882a17.1,17.1,0,0,1,16.336-10.478l20.812.751c3.97.2,5.308-5.512,1.61-7.065l-17.782-7.771a17.039,17.039,0,0,1-10.157-16.942l1.85-23.423c.363-3.882-5.12-5.527-6.931-2.028L331.3,88.763A17.122,17.122,0,0,1,315.6,97.758l-19.816-.788a3.688,3.688,0,0,0-1.73,7.016l17.7,8.409a17.058,17.058,0,0,1,9.63,17.124Zm-4.7-55.346c12.834,1.13,21.97-6.3,26.88-17.638-2.012,12.855,1.658,24.4,14.109,30.1-12.506-1.044-22.662,6.939-26.368,18.632C330.511,122.47,326.786,111.028,313.5,105.056Z"
  /></svg>
