<?xml version="1.0" ?><svg id="Layer_1" style="enable-background:new 0 0 64 64;" version="1.1" viewBox="0 0 64 64" xml:space="preserve" xmlns="http://www.w3.org/2000/svg" xmlns:xlink="http://www.w3.org/1999/xlink"><style type="text/css">
	.st0{fill:#58595B;}
	.st1{fill:none;}
</style><g><path class="st0" d="M19.3283405,27.027256c0.4109135,0,0.6783695-0.0267105,0.7167873-0.0310802l0.8164749-0.0879021   l0.0690536-0.817337c0.0126419-0.1481209,0.2839909-3.6617489-1.7676525-5.7184486   c-2.0628281-2.0673828-5.5217867-1.7216053-5.6686449-1.7050934l-0.8164749,0.0879021l-0.0690527,0.817337   c-0.0126438,0.1481209-0.2839918,3.6612644,1.7676516,5.7174778C15.8975878,26.8150311,18.1763268,27.027256,19.3283405,27.027256z    M17.7517986,21.776968c0.8913651,0.8930988,1.1320763,2.3257446,1.1889725,3.2518673   c-0.9001179-0.0432224-2.2777672-0.2646751-3.1530838-1.1427193c-0.8913641-0.8930969-1.1320753-2.3257446-1.1889715-3.2513809   C15.4988327,20.6779575,16.8764839,20.8989258,17.7517986,21.776968z"/><path class="st0" d="M31.6552219,15.6360102l0.681776-0.4900141c0.1196251-0.0859585,2.9337654-2.1397438,3.1535683-5.065258   c0.2198029-2.9226007-2.2519951-5.3886967-2.3570328-5.4921384L32.5349159,4l-0.6817741,0.4900141   c-0.119627,0.085959-2.9337673,2.1397438-3.1535702,5.065258c-0.2198009,2.9226007,2.2519951,5.3886967,2.3570328,5.4921389   L31.6552219,15.6360102z M32.3262978,6.7074609c0.5504761,0.7386632,1.2726135,1.9649119,1.1782722,3.2246709   c-0.0948257,1.2563581-0.9881325,2.353426-1.6407299,2.996418c-0.5504761-0.7386637-1.2726135-1.9649124-1.1782722-3.2246704   C30.7803936,8.4475203,31.6737022,7.3504524,32.3262978,6.7074609z"/><path class="st0" d="M37.375412,37.6706123c-2.6833305,1.0834694-3.7735825,4.435379-3.8183212,4.5771866l-0.2441177,0.7692604   l0.7031708,0.3972549c0.097744,0.0548782,1.8770676,1.042675,3.9063416,1.042675   c0.6472473,0,1.3192978-0.1005287,1.9704361-0.3632584h0.0004845c2.6833305-1.0834732,3.7735863-4.4344101,3.8188095-4.5767021   l0.2441177-0.7692604l-0.7031708-0.3972549C43.1242943,38.2781525,40.0709,36.5842285,37.375412,37.6706123z    M41.4723778,39.7243958c-0.4050751,0.8289948-1.1734085,2.0596161-2.3254204,2.5248604   c-1.1452065,0.4613609-2.5072975,0.1102409-3.350029-0.208828c0.4045906-0.8289909,1.1729202-2.0600967,2.3249359-2.525341   C39.2665825,39.0527534,40.6286697,39.4048462,41.4723778,39.7243958z"/><path class="st0" d="M51.2691116,26.4473991c-0.1711731-0.0820732-4.2321548-1.9794827-7.5627327-0.3550053   c-2.5697823,1.2518063-3.8110886,4.1611729-4.2636375,5.501791c-3.2955666,0.7309532-5.5800819,1.9724388-7.0997276,3.13871   c1.0217514-3.9293976,2.4668732-7.2571468,4.322361-9.930006c1.1494598-0.455471,4.2224884-1.9068165,5.3579674-4.7737503   c1.3742447-3.4684639-0.7109528-7.4696779-0.8004265-7.6386814l-0.390976-0.736721l-0.7945938,0.2559347   c-0.179924,0.0577908-4.4198608,1.4559574-5.7979965,4.9355917c-1.1128654,2.8087158,0.0424309,5.9653969,0.56987,7.1549187   c-1.571743,2.340559-2.8583946,5.1215935-3.8472595,8.3156681c-2.9015503-2.6329746-4.1145935-6.7049713-4.5669003-8.8207359   c0.8203049-0.9624233,2.8509769-3.6825714,2.5588398-6.7314396c-0.35742-3.7287683-4.0293713-6.2915068-4.1854687-6.3988342   l-0.6919861-0.4754448l-0.5859756,0.6007404c-0.1327572,0.1359806-3.2454777,3.3742485-2.8885441,7.0991325   c0.2925014,3.0553627,2.8085499,5.3256226,3.7941914,6.1056881c0.4906025,2.4568691,1.97159,7.632185,5.9765854,10.7123165   c-0.2821674,1.1023483-0.5409927,2.236145-0.7584248,3.4240875c-0.2352409,1.2924805-0.4308491,2.6352234-0.5860958,4.0183945   c-1.347683-1.7569962-3.2332001-3.1350098-4.5957756-3.9878578c0.0009727-0.8248062-0.1288662-4.7850418-2.6429672-7.0441952   c-2.7684307-2.4884357-7.1814823-1.7954216-7.3672438-1.7648277l-0.8082085,0.1330662l-0.0252876,0.8173389   c-0.0058355,0.1918278-0.1147633,4.7243366,2.6415091,7.2006321c1.7545223,1.5768814,4.1699085,1.8765221,5.7508278,1.8765221   c0.2170658,0,0.4155312-0.0062523,0.5972214-0.0149918c2.1936378,1.233654,6.1053295,4.0539055,6.1071529,7.0586395   c-0.0343437,0.7359924-0.042429,1.4855232-0.0525188,2.2327461c-1.2558975,0.1803551-2.399765,0.6710968-3.2376366,1.4422379   c-0.8826103-0.6065674-1.9363937-0.9270935-3.0470734-0.9270935c-1.7355576,0-3.3203659,0.7789726-4.1596966,2.0547562   c-0.3929195-0.0908127-0.7955647-0.1369514-1.197237-0.1369514C14.2388639,50.7897758,12,52.8557014,12,55.3951302   C12,57.9340744,14.2388639,60,16.9912472,60h25.3802776c2.7523804,0,4.9912453-2.0659256,4.9912453-4.6048698   c0-2.5394287-2.2388649-4.6053543-4.9912453-4.6053543c-0.6832352,0-1.3450699,0.1252975-1.9675179,0.3720055   c-1.4680977-1.4914131-4.0070038-1.9411163-6.0012627-1.0373344c-0.9686852-0.9734116-2.3096199-1.5960655-3.7775993-1.7861977   c0.0101528-0.7236061,0.0170212-1.4501915,0.0506954-2.1606255c0.1393833-2.748436,0.4335861-5.3778915,0.8708801-7.8231659   c0.4079933-0.6280556,2.6151295-3.5806465,8.4244289-4.8402214c0.5692596,0.2445793,2.3212318,0.9210205,4.3148842,0.9210205   c0.999321,0,2.0560188-0.1709442,3.0480461-0.6541595c3.3203659-1.6171913,4.4286118-6.0137196,4.4743233-6.1997223L52,26.7956047   L51.2691116,26.4473991z M22.5850029,17.3998661c-0.1867332-1.9488859,1.0041828-3.8472652,1.7545223-4.8306923   c0.9215126,0.8158808,2.4450493,2.4393854,2.6312981,4.3839016c0.1867332,1.948885-1.0046692,3.8472652-1.7550087,4.8306923   C24.2943001,20.967886,22.7707653,19.3443813,22.5850029,17.3998661z M15.6165142,30.9410553   c1.2152309-0.0471077,3.4088707,0.0694466,4.840498,1.3549423c1.4476757,1.3010406,1.8405952,3.5451965,1.9456329,4.7816429   c-1.2171745,0.0427399-3.4200535-0.0767288-4.8400116-1.3525162   C16.1134987,34.4236031,15.7210655,32.1770172,15.6165142,30.9410553z M36.0911293,17.5766411   c0.7158165-1.8061075,2.6230316-2.9196873,3.730793-3.4344692c0.4478683,1.1582594,1.0712891,3.3339405,0.3496399,5.1555882   c-0.7158127,1.8061066-2.6230316,2.9196873-3.730793,3.4344692C35.9929008,21.5739689,35.3694801,19.3982887,36.0911293,17.5766411   z M35.1914978,51.9514351c1.2692108-0.5900574,2.9148064-0.3069267,3.8129768,0.6259956   c0.5475578,0.5716019,1.3703537,0.7478905,2.0915184,0.4501915c0.4006996-0.1651192,0.8296051-0.2486496,1.2755318-0.2486496   c1.6538582,0,2.9994164,1.1737976,2.9994164,2.6161575s-1.3455582,2.6156769-2.9994164,2.6156769H16.9912472   c-1.653861,0-2.9994164-1.173317-2.9994164-2.6156769s1.3455553-2.6161575,2.9994164-2.6161575   c0.2509232,0,0.502821,0.0286522,0.7488804,0.0859566c0.7624989,0.1743469,1.5468788-0.1248093,1.9976673-0.7648849   c0.5383186-0.7639198,1.5386105-1.2388763,2.6103859-1.2388763c0.706089,0,1.3688984,0.1995964,1.9179153,0.576458   c0.7245674,0.4982681,1.6582375,0.4511604,2.3234787-0.1146126c0.7931328-0.6760139,1.9203453-1.0635567,3.0918102-1.0635567   c1.320755,0,2.5374451,0.4730148,3.3378716,1.2971497C33.5804329,52.1354942,34.4542885,52.2928429,35.1914978,51.9514351z    M46.4607086,31.9929581c-1.7243729,0.8406487-3.878624,0.33218-5.0272331-0.0524502   c0.4289055-1.1563148,1.4053688-3.2120438,3.1462746-4.0599766c1.7248611-0.8396759,3.8800812-0.3326645,5.0272331,0.0524502   C49.1780777,29.0892982,48.2021027,31.1450253,46.4607086,31.9929581z"/></g></svg>