<svg viewBox="0 0 512 512" xmlns="http://www.w3.org/2000/svg"><g
    id="outline"
  ><path
      d="M452.008,276.534A40.041,40.041,0,0,0,488.016,254a23.953,23.953,0,0,0,3.94-38.4,32.044,32.044,0,0,0-12.083-43.394,55.885,55.885,0,0,0-62.228-51.839,192.036,192.036,0,0,0-325.951,4.24L87.672,74.544A8,8,0,0,0,77.26,67.565L48.769,76.678a8,8,0,0,0-5.4,9.215l3.384,16.629-25.187,8.055a8,8,0,0,0-4.931,10.736l31.241,73.848a39.94,39.94,0,0,0-4.994,34.587l7.968,24.912a404.123,404.123,0,0,0,15.882,41.577l4.52,10.115L71.927,320H40a24,24,0,0,0-7.834,46.68C35.661,438.58,95.25,496,168,496H344c72.75,0,132.339-57.42,135.834-129.32A24,24,0,0,0,472,320H448V276.325A39.716,39.716,0,0,0,452.008,276.534Zm-37.8-139.324A40.021,40.021,0,0,1,464,176c0,.233-.01.465-.018.7l-.013.439a8,8,0,0,0,5.342,7.771,15.976,15.976,0,0,1,9.253,21.7,39.941,39.941,0,0,0-54.772,1.636c.134-1.4.208-2.808.208-4.238a44.06,44.06,0,0,0-40.267-43.843A27.7,27.7,0,0,0,364,152a28.105,28.105,0,0,0-25.52,16.477,32.073,32.073,0,0,0-26.159,27.009A39.663,39.663,0,0,0,301.6,192.4a32.069,32.069,0,0,0-14.462-7.583,8,8,0,0,0,1.575-6.93A25.015,25.015,0,0,1,288,172c0-23.851,34.8-44,76-44,16.284,0,31.868,3.038,45.067,8.786A8,8,0,0,0,414.212,137.21ZM401.855,320H375.564A76.226,76.226,0,0,0,368,294.11l-.845-1.689a8,8,0,0,0-14.31,7.158l.844,1.687A60.087,60.087,0,0,1,359.435,320h-17.29a197.748,197.748,0,0,0-24.719-54.249,40.3,40.3,0,0,0,12.449-12.517l15.469,23.2A8,8,0,0,0,360,272V243.2a43.919,43.919,0,0,0,20,4.8c1.349,0,2.682-.071,4-.19V272a8,8,0,0,0,14.656,4.438l16.418-24.628A39.958,39.958,0,0,0,425.9,266.785,197.728,197.728,0,0,0,401.855,320ZM432,287.932V320H418.555A181.655,181.655,0,0,1,432,287.932Zm-181.569-29.01,5.349-8.024a16.655,16.655,0,0,1,3.265-3.613A40.119,40.119,0,0,0,287.8,271.143a103.575,103.575,0,0,1-2.9,31.351L280.519,320H250.765V264A40.149,40.149,0,0,0,250.431,258.922ZM210.765,224a39.967,39.967,0,0,0-32.572,16.826,32.509,32.509,0,0,0-8.486-8.023l15.53-9.757A36.442,36.442,0,0,0,202.765,192a8,8,0,0,0-.411-2.53L197.864,176h25.8l-4.49,13.47a8,8,0,0,0-.41,2.53,36.442,36.442,0,0,0,17.6,31.092l15.8,9.478a32.463,32.463,0,0,0-8.831,8.253A39.968,39.968,0,0,0,210.765,224Zm24,40v56h-48V264a24,24,0,0,1,48,0Zm37.422-88.135a40.147,40.147,0,0,0-12.52,15.444A31.993,31.993,0,0,0,248.31,211.6l-3.709-2.226a20.37,20.37,0,0,1-9.8-16.181l7.554-22.661A8,8,0,0,0,234.765,160h-48a8,8,0,0,0-7.59,10.53l7.554,22.661a20.371,20.371,0,0,1-9.8,16.181l-.14.086-28.28,17.768a8.137,8.137,0,0,0-.753.541,31.753,31.753,0,0,0-18.687,9.066q-.988-3.283-2.024-6.544l-7.968-24.912a39.938,39.938,0,0,0-4.369-9.316A144.051,144.051,0,0,1,256,80a142.613,142.613,0,0,1,91.677,32.937c-17.736,2.031-34.131,7.348-47.284,15.491C282.083,139.763,272,155.236,272,172Q272,173.929,272.187,175.865ZM135.7,261.3v-5.129a16.66,16.66,0,0,1,30.044-5.276l5.35,8.025a40.122,40.122,0,0,0-.333,5.077v56H147.638l-9.4-46.634q-1.182-5.866-2.551-11.72C135.692,261.531,135.7,261.419,135.7,261.3ZM272.05,233.462a8,8,0,0,0-2.67-5.5,16,16,0,1,1,22.581-22.581,8,8,0,0,0,5.5,2.671,24,24,0,1,1-25.412,25.412Zm28.367,72.912a119.54,119.54,0,0,0,3.55-31.969A181.852,181.852,0,0,1,325.445,320H297.01ZM380,232a27.9,27.9,0,0,1-23.619-12.974,8,8,0,0,0-8.618-3.476A16,16,0,1,1,343.917,184c.122,0,.244.009.367.011a8.013,8.013,0,0,0,7.957-6.413A12.025,12.025,0,0,1,364,168a11.9,11.9,0,0,1,9.579,4.81,7.983,7.983,0,0,0,6.506,3.19A28,28,0,0,1,380,232Zm22.538,9.771L400,245.578v-2.406C400.862,242.73,401.71,242.267,402.538,241.771Zm-66.562-10.79A31.988,31.988,0,0,0,344,232v13.578l-8.039-12.058c.019-.505.039-1.01.039-1.52C336,231.658,335.985,231.32,335.976,230.981ZM95.3,152.125a175.963,175.963,0,0,1,299.13-36.807,137.005,137.005,0,0,0-24.038-3.176,159.986,159.986,0,0,0-217.876-10.17,160.376,160.376,0,0,0-51.231,81.154,40.314,40.314,0,0,0-5.089-2.531L94.06,154.067A7.976,7.976,0,0,0,95.3,152.125ZM72.53,85.876,79.9,177.584c-.511.014-1.022.033-1.535.066L60.476,89.732ZM34.781,123.148l15.177-4.854L62.9,181.886c-.905.458-1.784.952-2.643,1.472Zm33.132,132.19L98.347,245.6a8,8,0,0,0-4.875-15.239l-30.479,9.748-4.874-15.239a24.026,24.026,0,0,1,15.373-30.11c.061-.011.121-.015.182-.028a8.017,8.017,0,0,0,1.449-.444,23.991,23.991,0,0,1,28.714,15.959l7.968,24.912a388.067,388.067,0,0,1,10.749,41.364L131.315,320H94.871l-2.381-5.329,10.114-3.235A8,8,0,1,0,97.729,296.2l-11.806,3.776L81.337,289.71q-.989-2.212-1.949-4.445l21.088-6.745A8,8,0,1,0,95.6,263.281L73.335,270.4Q70.467,262.922,67.913,255.338ZM344,480H168A120.16,120.16,0,0,1,48.264,368H463.736A120.16,120.16,0,0,1,344,480ZM472,336a8,8,0,0,1,0,16H40a8,8,0,0,1,0-16Zm-43.752-96.286a24,24,0,0,1,43.076-17.466,8.13,8.13,0,0,0,.709.816,7.946,7.946,0,0,0,6.81,3.8,8,8,0,0,0,1.429-.138,7.961,7.961,0,0,1-1.433,14.012,8,8,0,0,0-4.439,4.5,24,24,0,0,1-46.152-5.525Z"
    /><path d="M80,400H96a8,8,0,0,0,0-16H80a8,8,0,0,0,0,16Z" /><path
      d="M128,400h16a8,8,0,0,0,0-16H128a8,8,0,0,0,0,16Z"
    /><path d="M176,400h16a8,8,0,0,0,0-16H176a8,8,0,0,0,0,16Z" /><path
      d="M224,400h16a8,8,0,0,0,0-16H224a8,8,0,0,0,0,16Z"
    /><path d="M272,400h16a8,8,0,0,0,0-16H272a8,8,0,0,0,0,16Z" /><path
      d="M320,400h16a8,8,0,0,0,0-16H320a8,8,0,0,0,0,16Z"
    /><path d="M128,432h16a8,8,0,0,0,0-16H128a8,8,0,0,0,0,16Z" /><path
      d="M176,432h16a8,8,0,0,0,0-16H176a8,8,0,0,0,0,16Z"
    /><path d="M224,432h16a8,8,0,0,0,0-16H224a8,8,0,0,0,0,16Z" /><path
      d="M272,432h16a8,8,0,0,0,0-16H272a8,8,0,0,0,0,16Z"
    /><path d="M320,432h16a8,8,0,0,0,0-16H320a8,8,0,0,0,0,16Z" /><path
      d="M176,464h16a8,8,0,0,0,0-16H176a8,8,0,0,0,0,16Z"
    /><path d="M224,464h16a8,8,0,0,0,0-16H224a8,8,0,0,0,0,16Z" /><path
      d="M272,464h16a8,8,0,0,0,0-16H272a8,8,0,0,0,0,16Z"
    /><path d="M320,464h16a8,8,0,0,0,0-16H320a8,8,0,0,0,0,16Z" /><path
      d="M368,400h16a8,8,0,0,0,0-16H368a8,8,0,0,0,0,16Z"
    /><path d="M368,432h16a8,8,0,0,0,0-16H368a8,8,0,0,0,0,16Z" /><path
      d="M416,400h16a8,8,0,0,0,0-16H416a8,8,0,0,0,0,16Z"
    /></g></svg>
